# Blender v2.79 (sub 0) OBJ File: 'hexagon.blend'
# www.blender.org
mtllib hexagon.mtl
o Plane
v 1.255735 -1.379026 0.544522
v -1.000000 0.000000 0.499928
v 1.000000 0.000000 0.497207
v -1.000000 0.000000 -0.499928
v 1.000000 0.000000 -0.499928
v 0.000000 0.000000 1.000000
v 0.000000 0.000000 -1.000000
vt 0.007571 0.500531
vt 0.230859 0.994128
vt 0.762735 0.996798
vt 0.999630 0.495191
vt 0.229597 0.005872
vt 0.002614 0.496798
vt 0.997152 0.499469
vt 0.775126 0.000531
vn 0.0000 1.0000 0.0000
usemtl Material.001
s off
f 6/1/1 3/2/1 5/3/1 7/4/1
f 2/5/1 6/6/1 7/7/1 4/8/1
