# Blender v2.79 (sub 0) OBJ File: ''
# www.blender.org
mtllib pumpkin.mtl
o Pumpkin_Circle
v -0.207107 0.000000 -0.500000
v 0.000000 0.000000 -0.471079
v 0.000000 -0.188909 -0.369823
v -0.162590 -0.221348 -0.392528
v 0.207106 0.000000 -0.500000
v 0.162590 -0.221348 -0.392528
v 0.207107 -0.000000 0.500000
v 0.000000 -0.000000 0.471079
v 0.000000 -0.188909 0.369823
v 0.162590 -0.221348 0.392528
v -0.333103 0.000000 -0.333103
v -0.261504 -0.188909 -0.261504
v 0.333103 -0.000000 0.333103
v 0.261504 -0.188909 0.261505
v -0.500000 0.000000 -0.207107
v -0.392528 -0.221348 -0.162590
v 0.500000 -0.000000 0.207107
v 0.392528 -0.221348 0.162590
v -0.471079 0.000000 0.000000
v -0.369823 -0.188909 -0.000000
v 0.471079 0.000000 0.000000
v 0.369823 -0.188909 -0.000000
v -0.500000 -0.000000 0.207107
v -0.392528 -0.221348 0.162590
v 0.500000 0.000000 -0.207107
v 0.392528 -0.221348 -0.162590
v -0.333103 -0.000000 0.333103
v -0.261504 -0.188909 0.261504
v 0.333103 0.000000 -0.333103
v 0.261504 -0.188909 -0.261505
v -0.207107 -0.000000 0.500000
v -0.162590 -0.221348 0.392528
v -0.138879 -0.296822 0.138879
v -0.086348 -0.329949 0.208463
v 0.138879 -0.296822 -0.138879
v 0.086348 -0.329949 -0.208463
v 0.000000 -0.296822 0.196405
v 0.000000 -0.296822 -0.196405
v -0.086348 -0.329949 -0.208463
v 0.086348 -0.329949 0.208463
v -0.138879 -0.296822 -0.138879
v 0.138879 -0.296822 0.138879
v -0.208463 -0.329949 -0.086348
v 0.208463 -0.329949 0.086348
v -0.196405 -0.296822 -0.000000
v 0.196405 -0.296822 -0.000000
v -0.208463 -0.329949 0.086348
v 0.208463 -0.329949 -0.086348
v 0.085629 -0.318557 0.035469
v 0.080676 -0.301525 -0.000000
v -0.080676 -0.301525 -0.000000
v -0.085629 -0.318557 0.035469
v 0.085629 -0.318557 -0.035469
v -0.057046 -0.301525 0.057046
v 0.057046 -0.301525 -0.057046
v -0.035469 -0.318557 0.085629
v 0.035469 -0.318557 -0.085629
v 0.000000 -0.301525 0.080676
v 0.000000 -0.301525 -0.080676
v -0.035469 -0.318557 -0.085629
v 0.035469 -0.318557 0.085629
v -0.057046 -0.301525 -0.057046
v 0.057046 -0.301525 0.057046
v -0.085629 -0.318557 -0.035469
v 0.000000 -0.288061 -0.000000
v -0.162590 0.221348 -0.392528
v 0.000000 0.188909 -0.369823
v 0.162590 0.221348 -0.392528
v 0.162590 0.221348 0.392528
v 0.000000 0.188909 0.369823
v -0.261504 0.188909 -0.261504
v 0.261504 0.188909 0.261505
v -0.392528 0.221348 -0.162590
v 0.392528 0.221348 0.162590
v -0.369823 0.188909 0.000000
v 0.369823 0.188909 0.000000
v -0.392528 0.221348 0.162590
v 0.392528 0.221348 -0.162590
v -0.261504 0.188909 0.261504
v 0.261504 0.188909 -0.261505
v -0.162590 0.221348 0.392528
v -0.086348 0.329949 0.208463
v -0.138879 0.312595 0.138879
v 0.086348 0.329949 -0.208463
v 0.138879 0.312595 -0.138879
v 0.000000 0.312595 0.196405
v -0.086348 0.329949 -0.208463
v 0.000000 0.312595 -0.196405
v 0.086348 0.329949 0.208463
v -0.138879 0.312595 -0.138879
v 0.138879 0.312595 0.138879
v -0.208463 0.329949 -0.086348
v 0.208463 0.329949 0.086348
v -0.196405 0.312595 0.000000
v 0.196405 0.312595 0.000000
v -0.208463 0.329949 0.086348
v 0.208463 0.329949 -0.086348
v 0.080676 0.288061 0.000000
v 0.085629 0.305093 0.035469
v -0.085629 0.305093 0.035469
v -0.080676 0.288061 0.000000
v 0.085629 0.305093 -0.035469
v -0.057046 0.288061 0.057046
v 0.057046 0.288061 -0.057046
v -0.035469 0.305093 0.085629
v 0.035469 0.305093 -0.085629
v 0.000000 0.288061 0.080676
v -0.035469 0.305093 -0.085629
v 0.000000 0.288061 -0.080676
v 0.035469 0.305093 0.085629
v -0.057046 0.288061 -0.057046
v 0.057046 0.288061 0.057046
v -0.085629 0.305093 -0.035469
v 0.000000 0.288061 0.000000
v 0.081786 0.288060 -0.079662
v 0.002922 0.288061 -0.114427
v 0.002922 0.311130 -0.114427
v 0.081786 0.311130 -0.079662
v -0.081007 0.288061 0.075967
v -0.002144 0.288060 0.110732
v -0.002144 0.311130 0.110732
v -0.081007 0.311130 0.075967
v 0.112969 0.288060 0.000685
v 0.112969 0.311130 0.000685
v -0.112190 0.288061 -0.004381
v -0.112190 0.311130 -0.004381
v 0.078204 0.288060 0.079549
v 0.078204 0.311130 0.079549
v -0.077425 0.288061 -0.083245
v -0.077425 0.311130 -0.083245
v 0.049670 0.329355 0.031706
v -0.033164 0.329355 0.047433
v -0.048891 0.329355 -0.035401
v 0.033943 0.329355 -0.051128
v -0.028701 0.433905 -0.021842
v 0.020584 0.425811 -0.031783
v 0.029480 0.420239 0.018146
v -0.019805 0.428334 0.028087
v 0.054731 0.482437 0.005302
v 0.056354 0.472656 0.025926
v 0.036640 0.496648 0.011030
v 0.038263 0.486867 0.031653
v 0.013063 -0.302625 0.031536
v 0.013063 -0.282660 0.031536
v -0.013063 -0.282660 0.031536
v -0.013063 -0.302625 0.031536
v 0.031536 -0.282660 -0.013063
v 0.031536 -0.302625 -0.013063
v 0.013063 -0.302625 -0.031536
v 0.013063 -0.282660 -0.031536
v -0.031536 -0.282660 0.013063
v -0.031536 -0.302625 0.013063
v 0.031536 -0.282660 0.013063
v 0.031536 -0.302625 0.013063
v -0.031536 -0.282660 -0.013063
v -0.031536 -0.302625 -0.013063
v -0.013063 -0.282660 -0.031536
v -0.013063 -0.302625 -0.031536
v 0.000000 -0.318281 -0.000000
vt 0.054752 0.496899
vt 0.079897 0.496899
vt 0.079897 0.226652
vt 0.060157 0.180245
vt 0.105042 0.496899
vt 0.099637 0.180245
vt 0.105042 0.496900
vt 0.079897 0.496900
vt 0.079897 0.226652
vt 0.099637 0.180245
vt 0.039455 0.496900
vt 0.048147 0.226652
vt 0.120339 0.496900
vt 0.111646 0.226652
vt 0.019192 0.496900
vt 0.032240 0.180245
vt 0.140602 0.496900
vt 0.127554 0.180245
vt 0.022703 0.496900
vt 0.034996 0.226652
vt 0.137091 0.496900
vt 0.124797 0.226652
vt 0.019192 0.496900
vt 0.032240 0.180245
vt 0.140602 0.496900
vt 0.127554 0.180245
vt 0.039455 0.496900
vt 0.048147 0.226652
vt 0.120339 0.496900
vt 0.111646 0.226652
vt 0.054752 0.496900
vt 0.060157 0.180245
vt 0.063035 0.049710
vt 0.069413 0.024884
vt 0.096758 0.049710
vt 0.090380 0.024884
vt 0.079897 0.049710
vt 0.079897 0.049710
vt 0.069413 0.024884
vt 0.090380 0.024884
vt 0.063035 0.049710
vt 0.096758 0.049710
vt 0.054587 0.024884
vt 0.105206 0.024884
vt 0.056051 0.049710
vt 0.103742 0.049710
vt 0.054587 0.024884
vt 0.105206 0.024884
vt 0.090293 0.060442
vt 0.089692 0.084809
vt 0.070102 0.084809
vt 0.069501 0.060442
vt 0.090293 0.060442
vt 0.072971 0.084809
vt 0.086823 0.084809
vt 0.075591 0.060442
vt 0.084203 0.060442
vt 0.079897 0.084809
vt 0.079897 0.084809
vt 0.075591 0.060442
vt 0.084203 0.060442
vt 0.072971 0.084809
vt 0.086823 0.084809
vt 0.069501 0.060442
vt 0.079897 0.084809
vt 0.060157 0.813554
vt 0.079897 0.767147
vt 0.099637 0.813554
vt 0.099637 0.813554
vt 0.079897 0.767147
vt 0.048147 0.767147
vt 0.111646 0.767147
vt 0.032240 0.813554
vt 0.127554 0.813554
vt 0.034996 0.767147
vt 0.124797 0.767147
vt 0.032240 0.813554
vt 0.127554 0.813554
vt 0.048147 0.767147
vt 0.111646 0.767147
vt 0.060157 0.813554
vt 0.069413 0.968915
vt 0.063035 0.944090
vt 0.090380 0.968915
vt 0.096758 0.944089
vt 0.079897 0.944090
vt 0.069413 0.968915
vt 0.079897 0.944089
vt 0.090380 0.968915
vt 0.063035 0.944089
vt 0.096758 0.944090
vt 0.054587 0.968915
vt 0.105206 0.968915
vt 0.056051 0.944090
vt 0.103742 0.944090
vt 0.054587 0.968915
vt 0.105206 0.968915
vt 0.089692 0.908990
vt 0.090293 0.933357
vt 0.069501 0.933357
vt 0.070102 0.908990
vt 0.090293 0.933357
vt 0.072971 0.908990
vt 0.086823 0.908990
vt 0.075591 0.933357
vt 0.084203 0.933357
vt 0.079897 0.908990
vt 0.075591 0.933357
vt 0.079897 0.908990
vt 0.084203 0.933357
vt 0.072971 0.908990
vt 0.086823 0.908990
vt 0.069501 0.933357
vt 0.079897 0.908990
vt 0.809986 0.123864
vt 0.787798 0.123864
vt 0.787798 0.207118
vt 0.809986 0.207118
vt 0.723695 0.123864
vt 0.745883 0.123864
vt 0.745883 0.207118
vt 0.723695 0.207119
vt 0.826514 0.123864
vt 0.815276 0.123864
vt 0.815276 0.207118
vt 0.826514 0.207118
vt 0.707166 0.123864
vt 0.718404 0.123864
vt 0.718404 0.207118
vt 0.707166 0.207118
vt 0.808087 0.123864
vt 0.814382 0.123864
vt 0.814382 0.207118
vt 0.808087 0.207118
vt 0.725593 0.123864
vt 0.719298 0.123864
vt 0.719298 0.207118
vt 0.725593 0.207118
vt 0.765497 0.123864
vt 0.785638 0.123864
vt 0.785638 0.207119
vt 0.765497 0.207119
vt 0.768183 0.123864
vt 0.748042 0.123864
vt 0.748042 0.207118
vt 0.768183 0.207118
vt 0.791412 0.372102
vt 0.747504 0.372102
vt 0.739168 0.372102
vt 0.783075 0.372102
vt 0.749870 0.749411
vt 0.775994 0.720199
vt 0.780710 0.700092
vt 0.754586 0.729304
vt 0.794095 0.924557
vt 0.794955 0.889258
vt 0.784505 0.975842
vt 0.785365 0.940543
vt 0.776658 0.505365
vt 0.776658 0.660463
vt 0.762810 0.660463
vt 0.762810 0.505365
vt 0.786450 0.660463
vt 0.786450 0.505365
vt 0.776658 0.505365
vt 0.776658 0.660463
vt 0.753018 0.660463
vt 0.753018 0.505365
vt 0.786450 0.660463
vt 0.786450 0.505365
vt 0.753018 0.660463
vt 0.753018 0.505365
vt 0.762810 0.660463
vt 0.762810 0.505365
vt 0.769734 0.383745
vn 0.1618 -0.4335 -0.8865
vn 0.2288 -0.6286 -0.7433
vn 0.2214 -0.6068 -0.7634
vn -0.1618 -0.4335 -0.8865
vn -0.2214 -0.6068 -0.7634
vn -0.2288 -0.6286 -0.7433
vn -0.1618 -0.4335 0.8865
vn -0.2288 -0.6286 0.7433
vn -0.2214 -0.6068 0.7634
vn -0.7413 -0.4335 -0.5124
vn -0.6963 -0.6068 -0.3832
vn -0.6874 -0.6286 -0.3638
vn 0.7413 -0.4335 0.5124
vn 0.6963 -0.6068 0.3832
vn 0.6874 -0.6286 0.3638
vn -0.5124 -0.4335 -0.7413
vn -0.3638 -0.6286 -0.6874
vn -0.3832 -0.6068 -0.6963
vn 0.5124 -0.4335 0.7413
vn 0.3638 -0.6286 0.6874
vn 0.3832 -0.6068 0.6963
vn -0.8865 -0.4335 0.1618
vn -0.7634 -0.6068 0.2214
vn -0.7433 -0.6286 0.2288
vn 0.8865 -0.4335 -0.1618
vn 0.7634 -0.6068 -0.2214
vn 0.7433 -0.6286 -0.2288
vn -0.8865 -0.4335 -0.1618
vn -0.7433 -0.6286 -0.2288
vn -0.7634 -0.6068 -0.2214
vn 0.8865 -0.4335 0.1618
vn 0.7433 -0.6286 0.2288
vn 0.7634 -0.6068 0.2214
vn -0.5124 -0.4335 0.7413
vn -0.3832 -0.6068 0.6963
vn -0.3638 -0.6286 0.6874
vn 0.5124 -0.4335 -0.7413
vn 0.3832 -0.6068 -0.6963
vn 0.3638 -0.6286 -0.6874
vn -0.7413 -0.4335 0.5124
vn -0.6874 -0.6286 0.3638
vn -0.6963 -0.6068 0.3832
vn 0.7413 -0.4335 -0.5124
vn 0.6874 -0.6286 -0.3638
vn 0.6963 -0.6068 -0.3832
vn 0.1618 -0.4335 0.8865
vn 0.2214 -0.6068 0.7634
vn 0.2288 -0.6286 0.7433
vn -0.4621 -0.8863 -0.0294
vn -0.5001 -0.8654 0.0309
vn 0.4621 -0.8863 0.0294
vn 0.5001 -0.8654 -0.0309
vn 0.3318 -0.8654 0.3755
vn 0.3476 -0.8863 0.3060
vn 0.3476 -0.8863 -0.3060
vn 0.3318 -0.8654 -0.3755
vn -0.3318 -0.8654 -0.3755
vn -0.3476 -0.8863 -0.3060
vn -0.3476 -0.8863 0.3060
vn -0.3318 -0.8654 0.3755
vn -0.5001 -0.8654 -0.0309
vn -0.4621 -0.8863 0.0294
vn 0.5001 -0.8654 0.0309
vn 0.4621 -0.8863 -0.0294
vn 0.0294 -0.8863 -0.4621
vn -0.0309 -0.8654 -0.5001
vn -0.0294 -0.8863 0.4621
vn 0.0309 -0.8654 0.5001
vn -0.3755 -0.8654 0.3318
vn -0.3060 -0.8863 0.3476
vn 0.3755 -0.8654 -0.3318
vn 0.3060 -0.8863 -0.3476
vn -0.3060 -0.8863 -0.3476
vn -0.3755 -0.8654 -0.3318
vn 0.3060 -0.8863 0.3476
vn 0.3755 -0.8654 0.3318
vn -0.0309 -0.8654 0.5001
vn 0.0294 -0.8863 0.4621
vn 0.0309 -0.8654 -0.5001
vn -0.0294 -0.8863 -0.4621
vn -0.0088 -0.9181 -0.3964
vn -0.0567 -0.9138 -0.4022
vn 0.0567 -0.9138 -0.4022
vn 0.0088 -0.9181 -0.3964
vn -0.0567 -0.9138 0.4022
vn -0.0088 -0.9181 0.3964
vn 0.2865 -0.9181 0.2741
vn 0.3245 -0.9138 0.2443
vn -0.2865 -0.9181 -0.2741
vn -0.3245 -0.9138 -0.2443
vn -0.2443 -0.9138 -0.3245
vn -0.2741 -0.9181 -0.2865
vn 0.2443 -0.9138 0.3245
vn 0.2741 -0.9181 0.2865
vn 0.3964 -0.9181 -0.0088
vn 0.4022 -0.9138 -0.0567
vn 0.4022 -0.9138 0.0567
vn 0.3964 -0.9181 0.0088
vn -0.3964 -0.9181 0.0088
vn -0.4022 -0.9138 0.0567
vn -0.4022 -0.9138 -0.0567
vn -0.3964 -0.9181 -0.0088
vn -0.2741 -0.9181 0.2865
vn -0.2443 -0.9138 0.3245
vn 0.2741 -0.9181 -0.2865
vn 0.2443 -0.9138 -0.3245
vn 0.3245 -0.9138 -0.2443
vn 0.2865 -0.9181 -0.2741
vn -0.3245 -0.9138 0.2443
vn -0.2865 -0.9181 0.2741
vn 0.0088 -0.9181 0.3964
vn 0.0567 -0.9138 0.4022
vn 0.1844 -0.8993 0.3966
vn 0.4109 -0.8993 -0.1501
vn 0.4109 -0.8993 0.1501
vn -0.4109 -0.8993 0.1501
vn -0.4109 -0.8993 -0.1501
vn -0.1844 -0.8993 0.3966
vn 0.1844 -0.8993 -0.3966
vn 0.3966 -0.8993 -0.1844
vn -0.3966 -0.8993 0.1844
vn 0.1501 -0.8993 0.4109
vn -0.1501 -0.8993 -0.4109
vn 0.1501 -0.8993 -0.4109
vn -0.1501 -0.8993 0.4109
vn 0.3966 -0.8993 0.1844
vn -0.3966 -0.8993 -0.1844
vn -0.1844 -0.8993 -0.3966
vn 0.1618 0.4335 -0.8865
vn 0.1999 0.6042 -0.7714
vn 0.2043 0.6249 -0.7535
vn -0.1618 0.4335 -0.8865
vn -0.2043 0.6249 -0.7535
vn -0.1999 0.6042 -0.7714
vn -0.1618 0.4335 0.8865
vn -0.1999 0.6042 0.7714
vn -0.2043 0.6249 0.7535
vn -0.7413 0.4335 -0.5124
vn -0.6773 0.6249 -0.3884
vn -0.6868 0.6042 -0.4041
vn 0.7413 0.4335 0.5124
vn 0.6773 0.6249 0.3884
vn 0.6868 0.6042 0.4041
vn -0.5124 0.4335 -0.7413
vn -0.4041 0.6042 -0.6868
vn -0.3884 0.6249 -0.6773
vn 0.5124 0.4335 0.7413
vn 0.4041 0.6042 0.6868
vn 0.3884 0.6249 0.6773
vn -0.8865 0.4335 0.1618
vn -0.7535 0.6249 0.2043
vn -0.7714 0.6042 0.1999
vn 0.8865 0.4335 -0.1618
vn 0.7535 0.6249 -0.2043
vn 0.7714 0.6042 -0.1999
vn -0.8865 0.4335 -0.1618
vn -0.7714 0.6042 -0.1999
vn -0.7535 0.6249 -0.2043
vn 0.8865 0.4335 0.1618
vn 0.7714 0.6042 0.1999
vn 0.7535 0.6249 0.2043
vn -0.5124 0.4335 0.7413
vn -0.3884 0.6249 0.6773
vn -0.4041 0.6042 0.6868
vn 0.5124 0.4335 -0.7413
vn 0.3884 0.6249 -0.6773
vn 0.4041 0.6042 -0.6868
vn -0.7413 0.4335 0.5124
vn -0.6868 0.6042 0.4041
vn -0.6773 0.6249 0.3884
vn 0.7413 0.4335 -0.5124
vn 0.6868 0.6042 -0.4041
vn 0.6773 0.6249 -0.3884
vn 0.1618 0.4335 0.8865
vn 0.2043 0.6249 0.7535
vn 0.1999 0.6042 0.7714
vn -0.5666 0.7908 0.2315
vn 0.5666 0.7908 -0.2315
vn 0.2370 0.7908 0.5644
vn 0.2370 0.7908 -0.5644
vn -0.2370 0.7908 -0.5644
vn -0.2370 0.7908 0.5644
vn -0.5666 0.7908 -0.2315
vn 0.5666 0.7908 0.2315
vn -0.2315 0.7908 -0.5666
vn 0.2315 0.7908 0.5666
vn -0.5644 0.7908 0.2370
vn 0.5644 0.7908 -0.2370
vn -0.5644 0.7908 -0.2370
vn 0.5644 0.7908 0.2370
vn -0.2315 0.7908 0.5666
vn 0.2315 0.7908 -0.5666
vn -0.1449 0.9573 -0.2500
vn -0.0649 0.9330 -0.3541
vn -0.2006 0.9762 -0.0831
vn -0.2154 0.9724 -0.0892
vn 0.2154 0.9724 -0.0892
vn 0.2006 0.9762 -0.0831
vn 0.0649 0.9330 -0.3541
vn 0.1449 0.9573 -0.2500
vn -0.2154 0.9724 0.0892
vn -0.2006 0.9762 0.0831
vn -0.0649 0.9330 0.3541
vn -0.1449 0.9573 0.2500
vn 0.2792 0.9573 0.0743
vn 0.2963 0.9330 0.2045
vn -0.2792 0.9573 -0.0743
vn -0.2963 0.9330 -0.2045
vn 0.0892 0.9724 -0.2154
vn 0.0831 0.9762 -0.2006
vn -0.2045 0.9330 -0.2963
vn -0.0743 0.9573 -0.2792
vn -0.0892 0.9724 0.2154
vn -0.0831 0.9762 0.2006
vn 0.2045 0.9330 0.2963
vn 0.0743 0.9573 0.2792
vn 0.2500 0.9573 -0.1449
vn 0.3541 0.9330 -0.0649
vn 0.0892 0.9724 0.2154
vn 0.0831 0.9762 0.2006
vn 0.3541 0.9330 0.0649
vn 0.2500 0.9573 0.1449
vn -0.2500 0.9573 0.1449
vn -0.3541 0.9330 0.0649
vn -0.0892 0.9724 -0.2154
vn -0.0831 0.9762 -0.2006
vn -0.3541 0.9330 -0.0649
vn -0.2500 0.9573 -0.1449
vn -0.0743 0.9573 0.2792
vn -0.2045 0.9330 0.2963
vn 0.0743 0.9573 -0.2792
vn 0.2045 0.9330 -0.2963
vn 0.2154 0.9724 0.0892
vn 0.2006 0.9762 0.0831
vn 0.2963 0.9330 -0.2045
vn 0.2792 0.9573 -0.0743
vn -0.2963 0.9330 0.2045
vn -0.2792 0.9573 0.0743
vn 0.1449 0.9573 0.2500
vn 0.0649 0.9330 0.3541
vn 0.3061 0.9015 0.3061
vn 0.4329 0.9015 0.0000
vn -0.4329 0.9015 0.0000
vn -0.3061 0.9015 0.3061
vn 0.3061 0.9015 -0.3061
vn 0.0000 0.9015 0.4329
vn 0.0000 0.9015 -0.4329
vn -0.3061 0.9015 -0.3061
vn 0.4034 0.0000 -0.9150
vn -0.4034 -0.0000 0.9150
vn 0.9323 -0.0000 -0.3618
vn -0.9323 0.0000 0.3618
vn 0.9150 0.0000 0.4034
vn -0.9150 0.0000 -0.4034
vn 0.3618 -0.0000 0.9323
vn -0.3618 0.0000 -0.9323
vn 0.0079 0.9553 0.2954
vn 0.1883 0.9561 0.2245
vn 0.2174 0.9663 0.1382
vn -0.1382 0.9663 0.2174
vn -0.0079 0.9553 -0.2954
vn -0.1883 0.9561 -0.2245
vn -0.2174 0.9663 -0.1381
vn 0.1382 0.9663 -0.2174
vn 0.2245 0.9561 -0.1883
vn -0.2245 0.9561 0.1883
vn 0.2954 0.9553 -0.0079
vn -0.2954 0.9553 0.0079
vn -0.1784 0.1649 -0.9701
vn -0.1192 0.3149 -0.9416
vn -0.1064 0.3452 -0.9325
vn 0.9687 0.1788 -0.1722
vn 0.1981 0.1743 0.9646
vn 0.1793 -0.0177 0.9836
vn 0.1842 0.0258 0.9826
vn -0.9685 0.1649 0.1865
vn 0.8870 -0.4057 -0.2205
vn -0.0258 0.5214 -0.8530
vn 0.1529 -0.2157 0.9644
vn -0.7153 0.6531 0.2488
vn 0.6463 0.7079 0.2849
vn 0.0000 -0.0000 1.0000
vn 0.7071 0.0000 -0.7071
vn -0.7071 -0.0000 0.7071
vn 1.0000 -0.0000 0.0000
vn -1.0000 0.0000 0.0000
vn 0.7071 -0.0000 0.7071
vn -0.7071 0.0000 -0.7071
vn -0.0000 -1.0000 -0.0000
vn 0.3852 -0.9090 0.1595
vn 0.1595 -0.9090 0.3852
vn -0.1595 -0.9090 0.3852
vn -0.3852 -0.9090 -0.1595
vn -0.3852 -0.9090 0.1595
vn 0.3852 -0.9090 -0.1595
vn 0.1595 -0.9090 -0.3852
vn -0.1595 -0.9090 -0.3852
vn 0.0000 0.0000 -1.0000
usemtl Material.001
s 1
f 1/1/1 2/2/1 3/3/2 4/4/3
f 2/2/4 5/5/4 6/6/5 3/3/6
f 7/7/7 8/8/7 9/9/8 10/10/9
f 11/11/10 1/1/10 4/4/11 12/12/12
f 13/13/13 7/7/13 10/10/14 14/14/15
f 15/15/16 11/11/16 12/12/17 16/16/18
f 17/17/19 13/13/19 14/14/20 18/18/21
f 19/19/22 15/15/22 16/16/23 20/20/24
f 21/21/25 17/17/25 18/18/26 22/22/27
f 23/23/28 19/19/28 20/20/29 24/24/30
f 25/25/31 21/21/31 22/22/32 26/26/33
f 27/27/34 23/23/34 24/24/35 28/28/36
f 29/29/37 25/25/37 26/26/38 30/30/39
f 31/31/40 27/27/40 28/28/41 32/32/42
f 5/5/43 29/29/43 30/30/44 6/6/45
f 8/8/46 31/31/46 32/32/47 9/9/48
f 32/32/42 28/28/41 33/33/49 34/34/50
f 6/6/45 30/30/44 35/35/51 36/36/52
f 9/9/48 32/32/47 34/34/53 37/37/54
f 4/4/3 3/3/2 38/38/55 39/39/56
f 3/3/6 6/6/5 36/36/57 38/38/58
f 10/10/9 9/9/8 37/37/59 40/40/60
f 12/12/12 4/4/11 39/39/61 41/41/62
f 14/14/15 10/10/14 40/40/63 42/42/64
f 16/16/18 12/12/17 41/41/65 43/43/66
f 18/18/21 14/14/20 42/42/67 44/44/68
f 20/20/24 16/16/23 43/43/69 45/45/70
f 22/22/27 18/18/26 44/44/71 46/46/72
f 24/24/30 20/20/29 45/45/73 47/47/74
f 26/26/33 22/22/32 46/46/75 48/48/76
f 28/28/36 24/24/35 47/47/77 33/33/78
f 30/30/39 26/26/38 48/48/79 35/35/80
f 46/46/72 44/44/71 49/49/81 50/50/82
f 47/47/74 45/45/73 51/51/83 52/52/84
f 48/48/76 46/46/75 50/50/85 53/53/86
f 33/33/78 47/47/77 52/52/87 54/54/88
f 35/35/80 48/48/79 53/53/89 55/55/90
f 34/34/50 33/33/49 54/54/91 56/56/92
f 36/36/52 35/35/51 55/55/93 57/57/94
f 37/37/54 34/34/53 56/56/95 58/58/96
f 39/39/56 38/38/55 59/59/97 60/60/98
f 38/38/58 36/36/57 57/57/99 59/59/100
f 40/40/60 37/37/59 58/58/101 61/61/102
f 41/41/62 39/39/61 60/60/103 62/62/104
f 42/42/64 40/40/63 61/61/105 63/63/106
f 43/43/66 41/41/65 62/62/107 64/64/108
f 44/44/68 42/42/67 63/63/109 49/49/110
f 45/45/70 43/43/69 64/64/111 51/51/112
f 57/57/94 55/55/93 65/65/113
f 58/58/96 56/56/95 65/65/114
f 60/60/98 59/59/97 65/65/115
f 59/59/100 57/57/99 65/65/116
f 61/61/102 58/58/101 65/65/117
f 62/62/104 60/60/103 65/65/118
f 63/63/106 61/61/105 65/65/119
f 64/64/108 62/62/107 65/65/120
f 49/49/110 63/63/109 65/65/121
f 51/51/112 64/64/111 65/65/122
f 50/50/82 49/49/81 65/65/123
f 52/52/84 51/51/83 65/65/124
f 53/53/86 50/50/85 65/65/125
f 54/54/88 52/52/87 65/65/126
f 55/55/90 53/53/89 65/65/127
f 56/56/92 54/54/91 65/65/128
f 1/1/129 66/66/130 67/67/131 2/2/129
f 2/2/132 67/67/133 68/68/134 5/5/132
f 7/7/135 69/69/136 70/70/137 8/8/135
f 11/11/138 71/71/139 66/66/140 1/1/138
f 13/13/141 72/72/142 69/69/143 7/7/141
f 15/15/144 73/73/145 71/71/146 11/11/144
f 17/17/147 74/74/148 72/72/149 13/13/147
f 19/19/150 75/75/151 73/73/152 15/15/150
f 21/21/153 76/76/154 74/74/155 17/17/153
f 23/23/156 77/77/157 75/75/158 19/19/156
f 25/25/159 78/78/160 76/76/161 21/21/159
f 27/27/162 79/79/163 77/77/164 23/23/162
f 29/29/165 80/80/166 78/78/167 25/25/165
f 31/31/168 81/81/169 79/79/170 27/27/168
f 5/5/171 68/68/172 80/80/173 29/29/171
f 8/8/174 70/70/175 81/81/176 31/31/174
f 81/81/169 82/82/177 83/83/177 79/79/170
f 68/68/172 84/84/178 85/85/178 80/80/173
f 70/70/175 86/86/179 82/82/179 81/81/176
f 66/66/130 87/87/180 88/88/180 67/67/131
f 67/67/133 88/88/181 84/84/181 68/68/134
f 69/69/136 89/89/182 86/86/182 70/70/137
f 71/71/139 90/90/183 87/87/183 66/66/140
f 72/72/142 91/91/184 89/89/184 69/69/143
f 73/73/145 92/92/185 90/90/185 71/71/146
f 74/74/148 93/93/186 91/91/186 72/72/149
f 75/75/151 94/94/187 92/92/187 73/73/152
f 76/76/154 95/95/188 93/93/188 74/74/155
f 77/77/157 96/96/189 94/94/189 75/75/158
f 78/78/160 97/97/190 95/95/190 76/76/161
f 79/79/163 83/83/191 96/96/191 77/77/164
f 80/80/166 85/85/192 97/97/192 78/78/167
f 95/95/193 98/98/194 99/99/195 93/93/196
f 96/96/197 100/100/198 101/101/199 94/94/200
f 97/97/201 102/102/202 98/98/203 95/95/204
f 83/83/205 103/103/206 100/100/198 96/96/197
f 85/85/207 104/104/208 102/102/202 97/97/201
f 82/82/209 105/105/210 103/103/211 83/83/212
f 84/84/213 106/106/214 104/104/215 85/85/216
f 86/86/217 107/107/218 105/105/210 82/82/209
f 87/87/219 108/108/220 109/109/221 88/88/222
f 88/88/223 109/109/224 106/106/214 84/84/213
f 89/89/225 110/110/226 107/107/227 86/86/228
f 90/90/229 111/111/230 108/108/220 87/87/219
f 91/91/231 112/112/232 110/110/226 89/89/225
f 92/92/233 113/113/234 111/111/235 90/90/236
f 93/93/196 99/99/195 112/112/237 91/91/238
f 94/94/239 101/101/240 113/113/234 92/92/233
f 106/106/214 114/114/241 104/104/215
f 107/107/218 114/114/242 105/105/210
f 108/108/220 114/114/242 109/109/221
f 109/109/224 114/114/243 106/106/214
f 110/110/226 114/114/243 107/107/227
f 111/111/230 114/114/244 108/108/220
f 112/112/232 114/114/245 110/110/226
f 113/113/234 114/114/245 111/111/235
f 99/99/195 114/114/244 112/112/237
f 101/101/240 114/114/246 113/113/234
f 98/98/194 114/114/247 99/99/195
f 100/100/198 114/114/247 101/101/199
f 102/102/202 114/114/246 98/98/203
f 103/103/206 114/114/241 100/100/198
f 104/104/208 114/114/248 102/102/202
f 105/105/210 114/114/248 103/103/211
f 115/115/249 116/116/249 117/117/249 118/118/249
f 119/119/250 120/120/250 121/121/250 122/122/250
f 123/123/251 115/124/251 118/125/251 124/126/251
f 125/127/252 119/128/252 122/129/252 126/130/252
f 127/131/253 123/132/253 124/133/253 128/134/253
f 129/135/254 125/136/254 126/137/254 130/138/254
f 120/139/255 127/140/255 128/141/255 121/142/255
f 116/143/256 129/144/256 130/145/256 117/146/256
f 121/142/257 128/141/258 131/147/259 132/148/260
f 117/146/261 130/145/262 133/149/263 134/150/264
f 118/118/265 117/117/261 134/150/264
f 122/122/266 121/121/257 132/148/260
f 124/126/267 118/125/265 134/150/264 131/147/259
f 126/130/268 122/129/266 132/148/260 133/149/263
f 128/134/258 124/133/267 131/147/259
f 130/138/262 126/137/268 133/149/263
f 134/150/269 133/149/269 135/151/270 136/152/271
f 131/147/272 134/150/272 136/152/272 137/153/272
f 132/148/273 131/147/273 137/153/274 138/154/275
f 133/149/276 132/148/276 138/154/276 135/151/276
f 137/153/277 136/152/277 139/155/277 140/156/277
f 136/152/271 135/151/270 141/157/278 139/155/278
f 138/154/275 137/153/274 140/156/279 142/158/279
f 135/151/280 138/154/280 142/158/280 141/157/280
f 139/155/281 141/157/281 142/158/281 140/156/281
f 143/159/282 144/160/282 145/161/282 146/162/282
f 147/163/283 148/164/283 149/165/283 150/166/283
f 151/167/284 152/168/284 146/162/284 145/161/284
f 153/169/285 154/170/285 148/164/285 147/163/285
f 155/171/286 156/172/286 152/168/286 151/167/286
f 144/160/287 143/159/287 154/170/287 153/169/287
f 157/173/288 158/174/288 156/172/288 155/171/288
f 159/175/289 154/170/290 143/159/291
f 146/162/292 159/175/289 143/159/291
f 156/172/293 159/175/289 152/168/294
f 148/164/295 159/175/289 149/165/296
f 159/175/289 156/172/293 158/174/297
f 159/175/289 158/174/297 149/165/296
f 152/168/294 159/175/289 146/162/292
f 154/170/290 159/175/289 148/164/295
f 149/165/298 158/174/298 157/173/298 150/166/298
